<?xml version="1.0" encoding="utf-8"?>
<!-- Generator: Adobe Illustrator 22.0.0, SVG Export Plug-In . SVG Version: 6.00 Build 0)  -->
<svg version="1.1" id="Ebene_1" xmlns="http://www.w3.org/2000/svg" xmlns:xlink="http://www.w3.org/1999/xlink" x="0px" y="0px"
	 viewBox="0 0 56.7 56.7" style="enable-background:new 0 0 56.7 56.7;" xml:space="preserve">
<style type="text/css">
	.st0{fill:#55555A;}
</style>
<g>
	<path class="st0" d="M44,28.5L44,28.5l-5.7-8.6l0,0c-0.1-0.2-0.4-0.4-0.6-0.4h-0.7c-0.1,0.2-0.2,0.5-0.2,0.7c0,0.3,0.1,0.5,0.2,0.7
		h0.3l4.9,7.2h-8.8c-0.4,0-0.7,0.3-0.7,0.7c0,2.4-1.9,4.3-4.3,4.3c-2.4,0-4.3-1.9-4.3-4.3c0-0.4-0.3-0.7-0.7-0.7h-8.8l4.9-7.2h0.4
		c0.2-0.2,0.2-0.5,0.2-0.7c0-0.3,0-0.6-0.2-0.7h-0.8c-0.3,0-0.5,0.2-0.6,0.4l0,0l-5.7,8.6l0,0c0,0.1-0.1,0.2-0.1,0.3v8.6
		c0,0.4,0.3,0.7,0.7,0.7h30.1c0.4,0,0.7-0.3,0.7-0.7v-8.6C44,28.7,44,28.6,44,28.5z M42.6,36.8H13.9v-7.2h8.7c0.4,2.8,2.8,5,5.7,5
		c2.9,0,5.3-2.2,5.7-5h8.7V36.8z"/>
	<path class="st0" d="M28.3,28.9c-0.4,0-0.7-0.3-0.7-0.6v-9.5c0-0.3,0.3-0.6,0.7-0.6s0.7,0.3,0.7,0.6v9.5
		C29,28.6,28.7,28.9,28.3,28.9z"/>
	<g>
		<g>
			<path class="st0" d="M33,24.2h-9.5c-0.3,0-0.6-0.3-0.6-0.7c0-0.4,0.3-0.7,0.6-0.7H33c0.3,0,0.6,0.3,0.6,0.7
				C33.6,23.9,33.3,24.2,33,24.2z"/>
		</g>
	</g>
	<g>
		<g>
			<path class="st0" d="M21.6,19.5h-2.8c-0.1,0.5-0.2,1-0.3,1.4h3.1c0.3,0,0.6-0.3,0.6-0.7C22.1,19.9,21.9,19.5,21.6,19.5z"/>
		</g>
	</g>
	<g>
		<g>
			<path class="st0" d="M35,19.5h2.4c0.1,0.5,0.2,1,0.3,1.4H35c-0.3,0-0.6-0.3-0.6-0.7C34.4,19.9,34.7,19.5,35,19.5z"/>
		</g>
	</g>
</g>
</svg>
