<?xml version="1.0" encoding="utf-8"?>
<!-- Generator: Adobe Illustrator 22.0.0, SVG Export Plug-In . SVG Version: 6.00 Build 0)  -->
<svg version="1.1" id="Ebene_1" xmlns="http://www.w3.org/2000/svg" xmlns:xlink="http://www.w3.org/1999/xlink" x="0px" y="0px"
	 viewBox="0 0 56.7 56.7" style="enable-background:new 0 0 56.7 56.7;" xml:space="preserve">
<style type="text/css">
	.st0{fill:#55555A;}
</style>
<path class="st0" d="M18,42.7c-1.5,0-2.8-1.2-2.8-2.8v-1.2h-0.6c-0.4,0-0.8-0.3-0.8-0.8s0.3-0.8,0.8-0.8h0.6v-2.5h-0.6
	c-0.4,0-0.8-0.3-0.8-0.8c0-0.4,0.3-0.8,0.8-0.8h0.6v-2.5h-0.6c-0.4,0-0.8-0.3-0.8-0.8c0-0.4,0.3-0.8,0.8-0.8h0.6v-2.5h-0.6
	c-0.4,0-0.8-0.3-0.8-0.8c0-0.4,0.3-0.8,0.8-0.8h0.6v-2.5h-0.6c-0.4,0-0.8-0.3-0.8-0.8c0-0.4,0.3-0.8,0.8-0.8h0.6v-2.5h-0.6
	c-0.4,0-0.8-0.3-0.8-0.8s0.3-0.8,0.8-0.8h0.6v-1.2c0-1.5,1.2-2.8,2.8-2.8h17.4c1.5,0,2.8,1.2,2.8,2.8l0,0.8c0,0.3-0.4,0.5-0.8,0.5
	c-0.4,0-0.8-0.2-0.8-0.5l0-0.8c0-0.7-0.6-1.2-1.2-1.2H22.1v26.7h13.3c0.7,0,1.2-0.6,1.2-1.2v-0.5c0-0.3,0.4-0.5,0.8-0.5
	c0.4,0,0.8,0.2,0.8,0.5v0.8l0,0.1c-0.2,1.4-1.4,2.4-2.7,2.4H18z M16.7,39.9c0,0.7,0.6,1.2,1.2,1.2h2.6V14.5H18
	c-0.7,0-1.2,0.6-1.2,1.2V17h0.6c0.4,0,0.8,0.3,0.8,0.8s-0.3,0.8-0.8,0.8h-0.6v2.5h0.6c0.4,0,0.8,0.3,0.8,0.8c0,0.4-0.3,0.8-0.8,0.8
	h-0.6v2.5h0.6c0.4,0,0.8,0.3,0.8,0.8c0,0.4-0.3,0.8-0.8,0.8h-0.6v2.5h0.6c0.4,0,0.8,0.3,0.8,0.8c0,0.4-0.3,0.8-0.8,0.8h-0.6v2.5h0.6
	c0.4,0,0.8,0.3,0.8,0.8c0,0.4-0.3,0.8-0.8,0.8h-0.6v2.5h0.6c0.4,0,0.8,0.3,0.8,0.8s-0.3,0.8-0.8,0.8h-0.6V39.9z"/>
<path class="st0" d="M33.9,35.5c-0.4,0-0.8-0.2-0.8-0.5v-6.3h-6.3c-0.3,0-0.5-0.4-0.5-0.8s0.2-0.8,0.5-0.8h6.3v-6.3
	c0-0.3,0.4-0.5,0.8-0.5c0.4,0,0.8,0.2,0.8,0.5v6.3H41c0.3,0,0.5,0.4,0.5,0.8s-0.2,0.8-0.5,0.8h-6.3V35
	C34.7,35.3,34.3,35.5,33.9,35.5z"/>
</svg>
