<?xml version="1.0" encoding="utf-8"?>
<!-- Generator: Adobe Illustrator 22.0.0, SVG Export Plug-In . SVG Version: 6.00 Build 0)  -->
<svg version="1.1" id="Ebene_1" xmlns="http://www.w3.org/2000/svg" xmlns:xlink="http://www.w3.org/1999/xlink" x="0px" y="0px"
	 viewBox="0 0 56.7 56.7" style="enable-background:new 0 0 56.7 56.7;" xml:space="preserve">
<style type="text/css">
	.st0{fill:#757574;}
	.st1{fill:none;stroke:#757574;stroke-width:0.5;stroke-miterlimit:10;}
</style>
<g id="Write_x40_2x.png">
	<g>
		<path class="st0" d="M49,21c-0.6,0-1,0.4-1,1v22c0,2.2-1.8,4-4,4H12c-2.2,0-4-1.8-4-4V12c0-2.2,1.8-4,4-4h22c0.6,0,1-0.4,1-1
			c0-0.6-0.4-1-1-1H12c-3.3,0-6,2.7-6,6v32c0,3.3,2.7,6,6,6h32c3.3,0,6-2.7,6-6V22C50,21.4,49.6,21,49,21z M17,39l8.5-1.5l23-23
			c0.9-0.9,1.5-2.2,1.5-3.5c0-2.8-2.2-5-5-5c-1.4,0-2.6,0.6-3.5,1.5l-23,23L17,39z M42.9,8.9C43.4,8.3,44.2,8,45,8c1.7,0,3,1.3,3,3
			c0,0.8-0.3,1.6-0.9,2.1l-1.3,1.3l-4.2-4.2L42.9,8.9z M40.2,11.6l4.2,4.2L26,34.2V30h-4.2L40.2,11.6z M20.3,32H24v3.7l-4.5,0.8
			L20.3,32z"/>
	</g>
	<g>
		<path class="st1" d="M49,21c-0.6,0-1,0.4-1,1v22c0,2.2-1.8,4-4,4H12c-2.2,0-4-1.8-4-4V12c0-2.2,1.8-4,4-4h22c0.6,0,1-0.4,1-1
			c0-0.6-0.4-1-1-1H12c-3.3,0-6,2.7-6,6v32c0,3.3,2.7,6,6,6h32c3.3,0,6-2.7,6-6V22C50,21.4,49.6,21,49,21z M17,39l8.5-1.5l23-23
			c0.9-0.9,1.5-2.2,1.5-3.5c0-2.8-2.2-5-5-5c-1.4,0-2.6,0.6-3.5,1.5l-23,23L17,39z M42.9,8.9C43.4,8.3,44.2,8,45,8c1.7,0,3,1.3,3,3
			c0,0.8-0.3,1.6-0.9,2.1l-1.3,1.3l-4.2-4.2L42.9,8.9z M40.2,11.6l4.2,4.2L26,34.2V30h-4.2L40.2,11.6z M20.3,32H24v3.7l-4.5,0.8
			L20.3,32z"/>
	</g>
</g>
</svg>
