<?xml version="1.0" encoding="utf-8"?>
<!-- Generator: Adobe Illustrator 22.0.0, SVG Export Plug-In . SVG Version: 6.00 Build 0)  -->
<svg version="1.1" id="Ebene_1" xmlns="http://www.w3.org/2000/svg" xmlns:xlink="http://www.w3.org/1999/xlink" x="0px" y="0px"
	 viewBox="0 0 56.7 56.7" style="enable-background:new 0 0 56.7 56.7;" xml:space="preserve">
<style type="text/css">
	.st0{fill:#000000;}
</style>
<g id="Address_Book_x40_2x.png">
	<g>
		<path class="st0" d="M42,6H22h-2h-4c-2.2,0-4,1.8-4,4v2h-1c-0.6,0-1,0.4-1,1c0,0.6,0.4,1,1,1h1v4h-1c-0.6,0-1,0.4-1,1
			c0,0.6,0.4,1,1,1h1v4h-1c-0.6,0-1,0.4-1,1c0,0.6,0.4,1,1,1h1v4h-1c-0.6,0-1,0.4-1,1c0,0.6,0.4,1,1,1h1v4h-1c-0.6,0-1,0.4-1,1
			c0,0.6,0.4,1,1,1h1v4h-1c-0.6,0-1,0.4-1,1c0,0.6,0.4,1,1,1h1v2c0,2.2,1.8,4,4,4h4h2h20c2.2,0,4-1.8,4-4V10C46,7.8,44.2,6,42,6z
			 M20,48h-4c-1.1,0-2-0.9-2-2v-2h1c0.6,0,1-0.4,1-1c0-0.6-0.4-1-1-1h-1v-4h1c0.6,0,1-0.4,1-1c0-0.6-0.4-1-1-1h-1v-4h1
			c0.6,0,1-0.4,1-1c0-0.6-0.4-1-1-1h-1v-4h1c0.6,0,1-0.4,1-1c0-0.6-0.4-1-1-1h-1v-4h1c0.6,0,1-0.4,1-1c0-0.6-0.4-1-1-1h-1v-4h1
			c0.6,0,1-0.4,1-1c0-0.6-0.4-1-1-1h-1v-2c0-1.1,0.9-2,2-2h4V48z M44,46c0,1.1-0.9,2-2,2H22V8h20c1.1,0,2,0.9,2,2V46z"/>
	</g>
</g>
</svg>
