<?xml version="1.0" encoding="utf-8"?>
<!-- Generator: Adobe Illustrator 22.0.0, SVG Export Plug-In . SVG Version: 6.00 Build 0)  -->
<svg version="1.1" id="Ebene_1" xmlns="http://www.w3.org/2000/svg" xmlns:xlink="http://www.w3.org/1999/xlink" x="0px" y="0px"
	 viewBox="0 0 56.7 56.7" style="enable-background:new 0 0 56.7 56.7;" xml:space="preserve">
<style type="text/css">
	.st0{fill:#ffffff;}
</style>
<g id="Drawers_1">
	<g>
		<path class="st0 portfolio" d="M40,12H16v12h24V12z M38,22H18v-8h20V22z M30,18h-4v2h4V18z M40,28H16v12h24V28z M38,38H18v-8h20V38z M49,6H7
			C6.4,6,6,6.4,6,7c0,0.6,0.4,1,1,1h3v34c0,2.2,1.8,4,4,4h2v3c0,0.6,0.4,1,1,1c0.6,0,1-0.4,1-1v-3h20v3c0,0.6,0.4,1,1,1
			c0.6,0,1-0.4,1-1v-3h2c2.2,0,4-1.8,4-4V8h3c0.6,0,1-0.4,1-1C50,6.4,49.6,6,49,6z M44,42c0,1.1-0.9,2-2,2H14c-1.1,0-2-0.9-2-2V8h32
			V42z M30,34h-4v2h4V34z"/>
	</g>
</g>
</svg>
