<?xml version="1.0" encoding="utf-8"?>
<!-- Generator: Adobe Illustrator 22.0.0, SVG Export Plug-In . SVG Version: 6.00 Build 0)  -->
<svg version="1.1" id="Ebene_1" xmlns="http://www.w3.org/2000/svg" xmlns:xlink="http://www.w3.org/1999/xlink" x="0px" y="0px"
	 viewBox="0 0 56.7 56.7" style="enable-background:new 0 0 56.7 56.7;" xml:space="preserve">
<style type="text/css">
	.st0{fill:none;stroke:#000000;stroke-width:4;stroke-miterlimit:10;}
</style>
<g>
	<path class="st0" d="M51.3,24.8h-46c-1,0-1.8-0.8-1.8-1.8v-3.5c0-1,0.8-1.8,1.8-1.8h46c1,0,1.8,0.8,1.8,1.8v3.5
		C53.2,23.9,52.3,24.8,51.3,24.8z"/>
	<path class="st0" d="M47.3,49.6H9.4c-1,0-1.8-0.8-1.8-1.8V26.6c0-1,0.8-1.8,1.8-1.8h37.9c1,0,1.8,0.8,1.8,1.8v21.1
		C49.2,48.8,48.3,49.6,47.3,49.6z"/>
	<line class="st0" x1="28.3" y1="49.6" x2="28.3" y2="17.6"/>
	<path class="st0" d="M28.3,17.6c0,0-10.4,0.1-10.4-7.2c0-5.6,10.4-3.3,10.4,1.6C28.3,16.8,28.3,17.6,28.3,17.6z"/>
	<path class="st0" d="M28.3,17.6c0,0,10.4,0.1,10.4-7.2c0-5.6-10.4-3.3-10.4,1.6C28.3,16.8,28.3,17.6,28.3,17.6z"/>
</g>
</svg>
