<?xml version="1.0" encoding="utf-8"?>
<!-- Generator: Adobe Illustrator 22.0.0, SVG Export Plug-In . SVG Version: 6.00 Build 0)  -->
<svg version="1.1" id="Ebene_1" xmlns="http://www.w3.org/2000/svg" xmlns:xlink="http://www.w3.org/1999/xlink" x="0px" y="0px"
	 viewBox="0 0 56.7 56.7" style="enable-background:new 0 0 56.7 56.7;" xml:space="preserve">
<style type="text/css">
	.st0{fill:#000000;}
</style>
<g id="Inboxes">
	<g>
		<path class="st0" d="M50,31V19c0-0.2,0-0.3-0.1-0.4l0,0l-8-12l0,0C41.7,6.2,41.4,6,41,6H15c-0.4,0-0.7,0.2-0.9,0.6l0,0l-8,12l0,0
			C6,18.7,6,18.8,6,19v12c0,0.6,0.4,1,1,1h2.1l-3,4.6l0,0C6,36.7,6,36.8,6,37v12c0,0.6,0.4,1,1,1h42c0.6,0,1-0.4,1-1V37
			c0-0.2,0-0.3-0.1-0.4l0,0l-3-4.6H49C49.6,32,50,31.6,50,31z M15.6,8h24.8l6.9,10H37h-1.1H35c-0.6,0-1,0.4-1,1c0,3.3-2.7,6-6,6
			c-3.3,0-6-2.7-6-6c0-0.6-0.4-1-1-1h-0.9H19H8.7L15.6,8z M48,48H8V38h12.1c0.5,3.9,3.9,7,7.9,7c4.1,0,7.4-3.1,7.9-7H48V48z
			 M47.3,36H37h-1.1H35c-0.6,0-1,0.4-1,1c0,3.3-2.7,6-6,6c-3.3,0-6-2.7-6-6c0-0.6-0.4-1-1-1h-0.9H19H8.7l2.7-4h33.1L47.3,36z M48,30
			H8V20h12.1c0.5,3.9,3.9,7,7.9,7c4.1,0,7.4-3.1,7.9-7H48V30z"/>
	</g>
</g>
</svg>
