<?xml version="1.0" encoding="utf-8"?>
<!-- Generator: Adobe Illustrator 22.0.0, SVG Export Plug-In . SVG Version: 6.00 Build 0)  -->
<svg version="1.1" id="Ebene_1" xmlns="http://www.w3.org/2000/svg" xmlns:xlink="http://www.w3.org/1999/xlink" x="0px" y="0px"
	 viewBox="0 0 56.7 56.7" style="enable-background:new 0 0 56.7 56.7;" xml:space="preserve">
<style type="text/css">
	.st0{fill:#6F6F6E;}
</style>
<g>
	<path class="st0" d="M0,7.6C0,6.2,1.2,5,2.6,5C5.8,5,9,5,12.2,5c1.2-0.1,2.4,0.8,2.7,2c2.6,9,5.2,17.9,7.8,26.9
		c8.8-3.1,18.5-3.2,27.4-0.8c0,1.4,0,2.8,0,4.2c0,0.5,0.1,0.9,0.3,1.4C43,36.4,34.9,36,27.4,38c-1.8,0.5-3.6,1.1-5.3,2
		c-1.1,0.5-2.4,0.2-3.2-0.7c-0.5-0.5-0.6-1.2-0.8-1.9c-2.6-9-5.2-18-7.9-27c-2.6,0-5.1,0-7.7,0C1.2,10.3-0.1,9,0,7.6z"/>
	<path class="st0" d="M31.9,13.4c0.5-0.9,1.4-1.5,2.4-1.4c6.6,0,13.2,0,19.8,0c1.4,0,2.6,1.3,2.6,2.7c0,7.5,0,15,0,22.5
		c0.1,1.4-1.2,2.7-2.6,2.7c-1.5,0.1-2.8-1.3-2.7-2.7c0-6.6,0-13.2,0-19.8c-5.6,0-11.1,0-16.7,0c-0.8,0-1.7-0.2-2.3-0.7
		C31.5,15.8,31.3,14.4,31.9,13.4z"/>
	<path class="st0" d="M27.6,43.2c1.4-0.4,3,0.1,3.9,1.2c0.9,1,1.2,2.5,0.7,3.8c-0.5,1.6-2.2,2.7-3.9,2.6c-1.8-0.1-3.4-1.7-3.6-3.5
		C24.6,45.5,25.9,43.7,27.6,43.2z"/>
	<path class="st0" d="M44.2,43.3c1.5-0.5,3.1,0.1,4.1,1.2c1,1.2,1.2,2.9,0.5,4.2c-0.7,1.5-2.6,2.4-4.2,2c-1.8-0.3-3.1-2-3.1-3.8
		C41.4,45.3,42.6,43.7,44.2,43.3z"/>
</g>
</svg>
