<svg xmlns="http://www.w3.org/2000/svg" viewBox="0 0 383.59 78.18"><defs><style>.cls-1{fill:#00aeef;}.cls-2{fill:#fff;}</style></defs><title>Element 2</title><g id="Ebene_2" data-name="Ebene 2"><g id="Layer_1" data-name="Layer 1"><path class="cls-1" d="M78.18,39.09A39.09,39.09,0,1,1,39.09,0,39.09,39.09,0,0,1,78.18,39.09"/><path class="cls-2" d="M66.1,28.6A28.25,28.25,0,0,0,29.35,12.93v0a2.66,2.66,0,0,0,1,5.12,2.62,2.62,0,0,0,1.08-.23,22.92,22.92,0,1,1-.55,42.39,22.93,22.93,0,0,1-13-27.51l6,2.55L21.63,16.8,6.75,28,13,30.62A28.25,28.25,0,0,0,50.43,65.35,28.26,28.26,0,0,0,66.1,28.6"/><path class="cls-2" d="M34.25,36.91c0-3.25,0-5.21-.17-6.93h6.43l.29,3.72H41a5.86,5.86,0,0,1,5.47-4.17,5.93,5.93,0,0,1,1.51.12v7.06A7.91,7.91,0,0,0,46,36.5c-2.22,0-3.72.92-4.13,2.58a9.23,9.23,0,0,0-.09,1.3V50.53H34.25Z"/><path class="cls-1" d="M105.22,38.39c2.7.84,4.34,3.41,5.14,7.18,1.11,5.09,1.77,7.71,2.48,9H110c-.54-1-1.29-4-2.18-8.2-1-4.79-3-7.09-7.31-7.09H95.69V54.61H93V21.41a37.1,37.1,0,0,1,7.32-.71c4.34,0,7.09.89,9,2.75a8.68,8.68,0,0,1,2.39,6.11c0,4.53-2.66,7.41-6.47,8.74Zm-4.57-1.25c5,0,8.29-2.83,8.29-7.18,0-5.63-4.48-7-8.69-7a19.84,19.84,0,0,0-4.56.39V37.14Z"/><path class="cls-1" d="M134.65,53.59a15.89,15.89,0,0,1-7.45,1.51c-6.91,0-11.12-5-11.12-12.06,0-7.85,4.43-13,10.64-13,7.62,0,9.22,7.18,9.26,10.91a14.72,14.72,0,0,1-.09,1.59H118.78c0,7.45,4.08,10.33,8.78,10.33A13.48,13.48,0,0,0,134,51.55Zm-1.46-13.17c0-3.41-1.38-8.15-6.74-8.15-5,0-7.14,4.56-7.54,8.15Z"/><path class="cls-1" d="M142.76,26.24l2.71-1v5.37H152V32.8h-6.56V47.92c0,3,.93,4.92,3.41,4.92a7.6,7.6,0,0,0,2.62-.4l.26,2.12a8.67,8.67,0,0,1-3.32.54c-5,0-5.68-3.9-5.68-7.54V32.8h-3.9V30.63h3.9Z"/><path class="cls-1" d="M172.2,48.89a39.5,39.5,0,0,0,.31,5.72H170l-.31-3.33h-.13a8.63,8.63,0,0,1-7.41,3.86c-4.7,0-7-3.37-7-6.65,0-5.63,4.92-8.86,14.32-8.77,0-2.35,0-7.45-5.9-7.45A10.3,10.3,0,0,0,157.66,34l-.8-1.95a13.17,13.17,0,0,1,7-2c6.78,0,8.29,5,8.29,9.49Zm-2.71-7c-5,0-11.48.62-11.48,6.2,0,3.33,2.17,4.83,4.57,4.83a6.64,6.64,0,0,0,6.91-6.07Z"/><path class="cls-1" d="M181,26a2.2,2.2,0,0,1,0-4.39,2,2,0,0,1,2,2.17A2.07,2.07,0,0,1,181,26Zm1.37,28.59h-2.75v-24h2.75Z"/><path class="cls-1" d="M192.9,54.61h-2.75V19.19h2.75Z"/><path class="cls-1" d="M212.67,26a2.2,2.2,0,0,1,0-4.39,2,2,0,0,1,2,2.17A2.07,2.07,0,0,1,212.67,26ZM214,54.61h-2.75v-24H214Z"/><path class="cls-1" d="M240.68,54.61h-2.75V40.42c0-4.25-1.55-8.06-6.29-8.06a7.35,7.35,0,0,0-7.1,7.4V54.61H221.8V36.48c0-2.31-.09-4-.18-5.85h2.48l.22,4.17h.09a8.85,8.85,0,0,1,8-4.75c2.48,0,8.24,1.38,8.24,10Z"/><path class="cls-1" d="M279.78,54.61h-2.71l-1-15.74c-.31-5-.67-11-.62-14.8h-.14c-1.15,3.72-2.57,7.71-4.38,12.59l-6.7,17.9h-1.95L256.06,37.1c-1.82-5.14-3.19-9.26-4.17-13h-.13c-.09,4-.35,9.75-.71,15.25l-1,15.29h-2.66L249.77,21H253l6.78,18.67c1.56,4.3,2.66,7.67,3.59,11h.18c.84-3.23,2-6.56,3.64-11l7-18.71h3.37Z"/><path class="cls-1" d="M306.86,42.37c0,9-6,12.77-11.26,12.77-6.16,0-10.9-4.7-10.9-12.32,0-8.25,5.27-12.77,11.21-12.77C302.52,30.05,306.86,35.11,306.86,42.37Zm-11-10.1c-5.8,0-8.33,5.41-8.33,10.42,0,5.71,3.5,10.23,8.2,10.23s8.38-4.52,8.38-10.41C304.07,38.12,301.72,32.27,295.82,32.27Z"/><path class="cls-1" d="M313.69,26.24l2.7-1v5.37H323V32.8h-6.56V47.92c0,3,.93,4.92,3.41,4.92a7.56,7.56,0,0,0,2.62-.4l.26,2.12a8.67,8.67,0,0,1-3.32.54c-5,0-5.67-3.9-5.67-7.54V32.8h-3.9V30.63h3.9Z"/><path class="cls-1" d="M329.42,26a2.2,2.2,0,0,1,.05-4.39,2,2,0,0,1,2,2.17A2.06,2.06,0,0,1,329.42,26Zm1.38,28.59h-2.75v-24h2.75Z"/><path class="cls-1" d="M358.86,42.37c0,9-6,12.77-11.26,12.77-6.17,0-10.91-4.7-10.91-12.32,0-8.25,5.28-12.77,11.22-12.77C354.51,30.05,358.86,35.11,358.86,42.37Zm-11-10.1c-5.81,0-8.34,5.41-8.34,10.42,0,5.71,3.51,10.23,8.2,10.23s8.38-4.52,8.38-10.41C356.06,38.12,353.71,32.27,347.82,32.27Z"/><path class="cls-1" d="M383.59,54.61h-2.75V40.42c0-4.25-1.55-8.06-6.29-8.06a7.35,7.35,0,0,0-7.09,7.4V54.61h-2.75V36.48c0-2.31-.09-4-.18-5.85H367l.22,4.17h.09a8.85,8.85,0,0,1,8-4.75c2.48,0,8.24,1.38,8.24,10Z"/></g></g></svg>