<svg xmlns="http://www.w3.org/2000/svg" viewBox="0 0 29.21 29.21"><defs><style>.cls-1{fill:#6f6f6e;}</style></defs><title>Element 1</title><g id="Ebene_2" data-name="Ebene 2"><g id="Ebene_1-2" data-name="Ebene 1"><path class="cls-1" d="M28.93,7.86,21.36.29A1,1,0,0,0,20.67,0H4A4,4,0,0,0,0,4V25.21a4,4,0,0,0,4,4H25.21a4,4,0,0,0,4-4V8.55A1,1,0,0,0,28.93,7.86Zm-7.72,19.4H8V17.1h13.2Zm6.05-2.05a2.05,2.05,0,0,1-2.05,2.05H23.16V16.12a1,1,0,0,0-1-1H7a1,1,0,0,0-1,1V27.26H4a2.05,2.05,0,0,1-2-2.05V4A2.05,2.05,0,0,1,4,2H6.06v6.6a1,1,0,0,0,1,1H19.15a1,1,0,1,0,0-1.95H8V2H20.26l7,7Z"/></g></g></svg>