<?xml version="1.0" encoding="utf-8"?>
<!-- Generator: Adobe Illustrator 22.0.0, SVG Export Plug-In . SVG Version: 6.00 Build 0)  -->
<svg version="1.1" id="Ebene_1" xmlns="http://www.w3.org/2000/svg" xmlns:xlink="http://www.w3.org/1999/xlink" x="0px" y="0px"
	 viewBox="0 0 56.7 56.7" style="enable-background:new 0 0 56.7 56.7;" xml:space="preserve">
<style type="text/css">
	.st0{fill:none;stroke:#000000;stroke-width:4;stroke-linecap:round;stroke-linejoin:round;stroke-miterlimit:10;}
</style>
<g>
	<g>
		<path class="st0" d="M31.3,16.1c0,1.1-0.2,0.6-1.1,0.6h-4c-0.9,0-0.9,0.5-0.9-0.6v-6c0-1-0.1-1.6,0.9-1.6h4c0.9,0,1.1,0.6,1.1,1.6
			V16.1z"/>
		<path class="st0" d="M25.4,15.1c0,0.9-6.1,2.7-8.2,3c-1,0-2.2-1.2-2.2-2v-7c0-0.9,1.2-2,2.2-2c2.2,0.3,8.2,2.2,8.2,3V15.1z"/>
		<path class="st0" d="M31.3,15.1c0,0.9,6.1,2.7,8.2,3c1,0,2.2-1.2,2.2-2v-7c0-0.9-1.2-2-2.2-2c-2.2,0.3-8.2,2.2-8.2,3V15.1z"/>
	</g>
	<path class="st0" d="M9,17.2l-2.9,1.1c-0.6,0.2-1,0.8-1,1.4v28.3c0,0.8,0.7,1.5,1.5,1.5H50c0.8,0,1.5-0.7,1.5-1.5V20.5
		c0-0.5-0.2-0.9-0.6-1.2l-3.2-2.5c-0.7-0.6-1.8-0.4-2.2,0.4L29.6,43.7c-0.6,1-2,1-2.6,0L10.9,17.8C10.5,17.2,9.7,16.9,9,17.2z"/>
	<line class="st0" x1="42.6" y1="31" x2="46.3" y2="31"/>
	<circle cx="28.2" cy="23.9" r="3"/>
	<circle cx="28.2" cy="32.3" r="3"/>
</g>
</svg>
