<?xml version="1.0" encoding="utf-8"?>
<!-- Generator: Adobe Illustrator 22.0.0, SVG Export Plug-In . SVG Version: 6.00 Build 0)  -->
<svg version="1.1" id="Ebene_1" xmlns="http://www.w3.org/2000/svg" xmlns:xlink="http://www.w3.org/1999/xlink" x="0px" y="0px"
	 viewBox="0 0 56.7 56.7" style="enable-background:new 0 0 56.7 56.7;" xml:space="preserve">
<style type="text/css">
	.st0{fill:#55555A;}
</style>
<g id="Settings_1_x40_2x.png">
	<g>
		<path class="st0" d="M48.5,23.6l-2.1-0.5c-0.4-1.6-1.1-3.2-1.9-4.6l1.1-1.9c0.3-0.7,0.6-1.5,0-2.1l-4.1-4.1
			c-0.3-0.3-0.6-0.4-0.9-0.4c-0.4,0-0.8,0.2-1.2,0.4l-1.9,1.1c-1.4-0.8-3-1.5-4.6-1.9l-0.5-2.1C32.2,6.7,31.7,6,30.9,6h-5.9
			c-0.8,0-1.3,0.7-1.5,1.5l-0.5,2.1c-1.6,0.4-3.2,1.1-4.6,1.9l-1.9-1.1c-0.3-0.2-0.8-0.4-1.2-0.4c-0.3,0-0.6,0.1-0.9,0.4l-4.1,4.1
			c-0.6,0.6-0.3,1.4,0,2.1l1.1,1.9c-0.8,1.4-1.5,3-1.9,4.6l-2.1,0.5C6.7,23.8,6,24.3,6,25.1v5.9c0,0.8,0.7,1.2,1.5,1.5l2.1,0.5
			c0.4,1.6,1.1,3.2,1.9,4.6l-1.1,1.9c-0.4,0.6-0.6,1.5,0,2.1l4.1,4.1c0.3,0.3,0.6,0.3,0.9,0.3c0.4,0,0.8-0.2,1.2-0.3l1.9-1.1
			c1.4,0.8,3,1.5,4.6,1.9l0.5,2.1c0.2,0.7,0.7,1.5,1.5,1.5h5.9c0.8,0,1.2-0.7,1.5-1.5l0.5-2.1c1.6-0.4,3.2-1.1,4.6-1.9l1.9,1.1
			c0.4,0.2,0.8,0.3,1.2,0.3c0.3,0,0.6-0.1,0.9-0.3l4.1-4.1c0.6-0.6,0.4-1.4,0-2.1l-1.1-1.9c0.8-1.4,1.5-3,1.9-4.6l2.1-0.5
			c0.7-0.2,1.5-0.7,1.5-1.5v-5.9C50,24.3,49.3,23.8,48.5,23.6z M48,30.5C48,30.5,48,30.5,48,30.5L45.9,31c-0.7,0.2-1.3,0.7-1.4,1.4
			c-0.4,1.4-1,2.8-1.7,4.1c-0.4,0.6-0.4,1.4,0,2l1.1,1.8l-3.5,3.5c0,0,0,0,0,0l-1.8-1.1c-0.3-0.2-0.7-0.3-1-0.3
			c-0.3,0-0.7,0.1-1,0.3c-1.3,0.7-2.7,1.3-4.1,1.7c-0.7,0.2-1.2,0.7-1.4,1.4L30.5,48c0,0,0,0,0,0h-4.9L25,45.9
			c-0.2-0.7-0.7-1.3-1.4-1.4c-1.4-0.4-2.8-1-4.1-1.7c-0.3-0.2-0.7-0.3-1-0.3c-0.4,0-0.7,0.1-1,0.3l-1.8,1.1c0,0,0,0,0,0l-3.5-3.5
			l1.1-1.8c0.4-0.6,0.4-1.4,0-2c-0.8-1.3-1.3-2.7-1.7-4.1c-0.2-0.7-0.7-1.2-1.4-1.4l-2-0.5c0,0,0,0,0,0v-4.9l2.1-0.5
			c0.7-0.2,1.3-0.7,1.4-1.4c0.4-1.4,1-2.8,1.7-4.1c0.4-0.6,0.4-1.4,0-2l-1.1-1.8c0,0,0,0,0,0l3.5-3.5l1.8,1.1c0.3,0.2,0.7,0.3,1,0.3
			c0.3,0,0.7-0.1,1-0.3c1.3-0.7,2.7-1.3,4.1-1.7c0.7-0.2,1.2-0.7,1.4-1.4L25.5,8h4.9c0,0,0,0,0,0l0.5,2.1c0.2,0.7,0.7,1.3,1.4,1.4
			c1.4,0.4,2.8,1,4.1,1.7c0.3,0.2,0.7,0.3,1,0.3c0.4,0,0.7-0.1,1-0.3l1.8-1.1l3.5,3.5c0,0,0,0,0,0l-1.1,1.8c-0.4,0.6-0.4,1.4,0,2
			c0.7,1.3,1.3,2.7,1.7,4.1c0.2,0.7,0.7,1.2,1.4,1.4l2.1,0.5V30.5z M28,18c-5.5,0-10,4.5-10,10c0,5.5,4.5,10,10,10
			c5.5,0,10-4.5,10-10C38,22.5,33.5,18,28,18z M28,36c-4.4,0-8-3.6-8-8c0-4.4,3.6-8,8-8s8,3.6,8,8C36,32.4,32.4,36,28,36z"/>
	</g>
</g>
</svg>
