<svg fill="#757574" xmlns="http://www.w3.org/2000/svg" xmlns:xlink="http://www.w3.org/1999/xlink" version="1.1" x="0px" y="0px" viewBox="0 0 100 100" style="enable-background:new 0 0 100 100;" xml:space="preserve"><path d="M75,45c11,0,20-9,20-20S86,5,75,5s-20,9-20,20c0,2.3,0.4,4.4,1.1,6.4l-18.7,9.7C34.1,36.8,28.9,34,23,34  c-9.9,0-18,8.1-18,18s8.1,18,18,18c5.2,0,9.9-2.2,13.2-5.7L53.9,76c-0.6,1.5-0.9,3.2-0.9,5c0,7.7,6.3,14,14,14s14-6.3,14-14  c0-7.7-6.3-14-14-14c-3.8,0-7.2,1.5-9.8,4L39.5,59.3c1-2.2,1.5-4.7,1.5-7.3c0-1.9-0.3-3.8-0.9-5.5l18.7-9.7C62.5,41.8,68.4,45,75,45  z M75,11c7.7,0,14,6.3,14,14c0,7.7-6.3,14-14,14s-14-6.3-14-14C61,17.3,67.3,11,75,11z M23,64c-6.6,0-12-5.4-12-12s5.4-12,12-12  s12,5.4,12,12S29.6,64,23,64z M67,73c4.4,0,8,3.6,8,8c0,4.4-3.6,8-8,8s-8-3.6-8-8C59,76.6,62.6,73,67,73z"></path></svg>