<?xml version="1.0" encoding="utf-8"?>
<!-- Generator: Adobe Illustrator 22.0.0, SVG Export Plug-In . SVG Version: 6.00 Build 0)  -->
<svg version="1.1" id="Ebene_1" xmlns="http://www.w3.org/2000/svg" xmlns:xlink="http://www.w3.org/1999/xlink" x="0px" y="0px"
	 viewBox="0 0 56.7 56.7" style="enable-background:new 0 0 56.7 56.7;" xml:space="preserve">
<path d="M26.8,44.4l-12.2,9.2c-1.9,1.4-4.5-0.4-3.7-2.7l5-14.9c0.3-1,0-2-0.8-2.7l-11-8.5c-1.8-1.4-0.7-4.5,1.6-4.5h12.7
	c1,0,2.2-0.5,2.6-1.5L26,4.2c0.7-2.2,3.8-2.2,4.5,0l5.1,14.7c0.3,1,1.9,1.5,3,1.5h12.7c2.3,0,3,3,1.2,4.5l-11,8.5
	C40.7,34,40.4,35,40.7,36l5,14.9c0.7,2.2-1.8,4.1-3.7,2.7l-12.2-9.2C28.9,43.8,27.7,43.8,26.8,44.4z"/>
</svg>
