<?xml version="1.0" encoding="utf-8"?>
<!-- Generator: Adobe Illustrator 22.0.0, SVG Export Plug-In . SVG Version: 6.00 Build 0)  -->
<svg version="1.1" id="Ebene_1" xmlns="http://www.w3.org/2000/svg" xmlns:xlink="http://www.w3.org/1999/xlink" x="0px" y="0px"
	 viewBox="0 0 56.7 56.7" style="enable-background:new 0 0 56.7 56.7;" xml:space="preserve">
<style type="text/css">
	.st0{fill:#82BE00;}
</style>
<g>
	<path class="st0" d="M4.4,15.4c11.4,0,22.9,0,34.3,0c0.5,0,1,0.1,1.4,0.4c4.3,3.2,8.7,6.3,13,9.5c1.8,1.3,3.1,3.4,3.4,5.6
		c0.4,2.4-0.3,4.9-1.8,6.8c-1.6,2-4.2,3.3-6.8,3.3c-13.2,0-26.3,0-39.5,0c-1,0-2-0.8-2.1-1.8c-0.1-0.9,0.4-1.8,1.2-2.2
		c0.6-0.3,1.2-0.2,1.9-0.2c12.9,0,25.8,0,38.7,0c2.1,0,3.9-1.7,4.2-3.7c0.3-1.6-0.4-3.3-1.7-4.2c-4.2-3.1-8.3-6.1-12.5-9.1
		c-10.7,0-21.4,0-32.2,0c-0.3-1-0.5-1.9-0.8-2.9C5.1,16.3,4.7,15.8,4.4,15.4z"/>
	<path class="st0" d="M0.1,18.2c-0.3-1.1,0.4-2.3,1.5-2.6c1.1-0.3,2.4,0.4,2.6,1.5c0.8,3,1.7,6.1,2.5,9.1c6.5,0,13,0,19.6,0
		c-0.2-0.7-0.7-1.5-0.5-2.3c0.1-1,1.1-1.8,2.1-1.8c0.9,0,1.8,0.6,2,1.4c0.5,1.4,1.1,2.8,1.6,4.2c0.4,1.3-0.7,2.7-2.1,2.7
		c-8.1,0-16.1,0-24.2,0c-0.7,0-1.4-0.3-1.8-0.9C3,29.2,3,28.7,2.8,28.3C1.9,24.9,1,21.5,0.1,18.2z"/>
</g>
</svg>
