<?xml version="1.0" encoding="utf-8"?>
<!-- Generator: Adobe Illustrator 22.0.0, SVG Export Plug-In . SVG Version: 6.00 Build 0)  -->
<svg version="1.1" id="Ebene_1" xmlns="http://www.w3.org/2000/svg" xmlns:xlink="http://www.w3.org/1999/xlink" x="0px" y="0px"
	 viewBox="0 0 56.7 56.7" style="enable-background:new 0 0 56.7 56.7;" xml:space="preserve">
<style type="text/css">
	.st0{fill:#D9DADA;}
</style>
<g>
	<path class="st0" d="M28.3,8.5L16.2,19.9h7.7v12h8.9v-12h7.7L28.3,8.5z M50.2,35.5l-7.4-5h-4.6l7.9,6.1h-8.3
		c-0.2,0-0.5,0.1-0.6,0.3l-1.9,5.2h-14l-1.9-5.2c-0.1-0.2-0.3-0.3-0.6-0.3h-8.3l8-6.1H14l-7.4,5c-1.1,0.7-1.8,2.2-1.5,3.4L6.3,46
		c0.3,1.2,1.6,2.2,2.9,2.2h38.1c1.3,0,2.6-1,2.9-2.2l1.3-7.2C52,37.6,51.3,36.1,50.2,35.5z"/>
</g>
</svg>
